<svg xmlns="http://www.w3.org/2000/svg" viewBox="0 0 512 512"><defs><style>.cls-1{fill:#4285f4;}.cls-2{opacity:0.07;}.cls-3{fill:#fff;}</style></defs><title>512px_Dataprep</title><g id="Art"><path class="cls-1" d="M111.16,460.84,6.16,279a46,46,0,0,1,0-46l105-181.87a46,46,0,0,1,39.83-23H361a46,46,0,0,1,39.83,23L505.84,233a46,46,0,0,1,0,46l-105,181.87a46,46,0,0,1-39.83,23H151A46,46,0,0,1,111.16,460.84Z"/><path class="cls-2" d="M400.42,460.25l69.79-119L311.71,182.11,276,192.58l-14.32-39.79-3.34,91.69-2.34,86-10.55,45.76,107,107h8.15A46,46,0,0,0,400.42,460.25Z"/><rect class="cls-3" x="246" y="136.9" width="20" height="237.99"/><path class="cls-3" d="M243.9,244a10.82,10.82,0,1,1-10.82,10.82A10.83,10.83,0,0,1,243.9,244m0-9.44a20.26,20.26,0,1,0,20.26,20.26,20.26,20.26,0,0,0-20.26-20.26Z"/><path class="cls-3" d="M173.56,244a10.82,10.82,0,1,1-10.82,10.82A10.83,10.83,0,0,1,173.56,244m0-9.44a20.26,20.26,0,1,0,20.26,20.26,20.26,20.26,0,0,0-20.26-20.26Z"/><path class="cls-3" d="M312.61,171.09H258.95c-2,0-3.61,2.14-3.61,4.74v33.49c0,2.61,1.62,4.74,3.61,4.74H312.6c2,0,3.6-2.13,3.6-4.74v-33.5C316.21,173.23,314.59,171.09,312.61,171.09Z"/><path class="cls-3" d="M364,233.91H265c-3.66,0-6.65,2.14-6.65,4.74v33.49c0,2.61,3,4.74,6.65,4.74h99c3.66,0,6.65-2.13,6.65-4.74v-33.5C370.66,236,367.66,233.91,364,233.91Z"/><path class="cls-3" d="M293.62,296.72h-42c-1.55,0-2.82,2.14-2.82,4.74V335c0,2.61,1.27,4.74,2.82,4.74h42c1.55,0,2.82-2.13,2.82-4.74v-33.5C296.43,298.86,295.16,296.72,293.62,296.72Z"/><path class="cls-3" d="M209.39,307.2A10.82,10.82,0,1,1,198.57,318a10.83,10.83,0,0,1,10.82-10.82m0-9.44A20.26,20.26,0,1,0,229.64,318a20.26,20.26,0,0,0-20.26-20.26Z"/><path class="cls-3" d="M209.39,181.95a10.82,10.82,0,1,1-10.82,10.82,10.83,10.83,0,0,1,10.82-10.82m0-9.44a20.26,20.26,0,1,0,20.26,20.26,20.26,20.26,0,0,0-20.26-20.26Z"/></g></svg>